<svg width="326" height="103" viewBox="0 0 326 103" fill="none" xmlns="http://www.w3.org/2000/svg">
<path d="M25.152 66.056C24.96 68.168 24.352 69.992 23.328 71.528C22.368 73 21.152 74.184 19.68 75.08C18.208 75.912 16.576 76.424 14.784 76.616C12.992 76.808 11.232 76.648 9.504 76.136C8.736 75.944 7.904 75.624 7.008 75.176C6.176 74.728 5.376 74.216 4.608 73.64C3.904 73.064 3.328 72.424 2.88 71.72C2.432 70.952 2.24 70.12 2.304 69.224C2.304 68.52 2.624 67.848 3.264 67.208C3.968 66.504 4.608 65.896 5.184 65.384C5.824 65 6.528 64.648 7.296 64.328C8.064 64.008 8.8 64.2 9.504 64.904C9.952 65.736 10.016 66.536 9.696 67.304C9.44 68.072 9.216 68.744 9.024 69.32C8.768 70.024 9.088 70.504 9.984 70.76C10.88 71.016 11.936 71.08 13.152 70.952C15.072 70.824 16.512 70.248 17.472 69.224C18.432 68.136 19.04 66.792 19.296 65.192C19.616 63.592 19.68 61.864 19.488 60.008C19.296 58.088 19.04 56.232 18.72 54.44C18.016 51.176 16.864 48.104 15.264 45.224C13.728 42.344 11.936 39.784 9.888 37.544C9.248 36.84 8.832 36.136 8.64 35.432C8.512 34.664 8.8 33.928 9.504 33.224C10.528 32.52 11.392 32.264 12.096 32.456C12.8 32.648 13.536 33.064 14.304 33.704C18.016 37.224 20.864 41.704 22.848 47.144C24.832 52.52 25.6 58.824 25.152 66.056Z" fill="#53A945"/>
<path d="M26.656 75.464C26.464 73.096 26.304 70.408 26.176 67.4C26.112 64.392 26.08 61.32 26.08 58.184C26.08 54.984 26.08 51.848 26.08 48.776C26.144 45.704 26.24 42.92 26.368 40.424C26.368 39.784 26.656 39.304 27.232 38.984C27.872 38.6 28.384 38.44 28.768 38.504C29.92 38.632 30.688 39.048 31.072 39.752C31.52 40.392 31.808 41.32 31.936 42.536C31.872 44.584 31.808 46.632 31.744 48.68C31.744 50.728 31.776 52.776 31.84 54.824C34.72 54.312 37.12 53.256 39.04 51.656C41.024 50.056 42.432 48.232 43.264 46.184C43.584 45.416 43.808 44.488 43.936 43.4C44.128 42.312 44.16 41.224 44.032 40.136C43.904 38.984 43.584 37.928 43.072 36.968C42.624 35.944 41.92 35.144 40.96 34.568C39.552 33.736 38.016 33.288 36.352 33.224C34.688 33.16 32.96 33.416 31.168 33.992C29.44 34.504 27.712 35.336 25.984 36.488C24.32 37.64 22.752 39.016 21.28 40.616C21.472 41.576 21.344 42.44 20.896 43.208C20.448 43.912 19.808 44.424 18.976 44.744C18.464 44.872 17.856 44.616 17.152 43.976C16.448 43.272 16.096 42.568 16.096 41.864C16.096 39.304 16.8 37.096 18.208 35.24C19.68 33.32 21.504 31.72 23.68 30.44C25.856 29.16 28.192 28.2 30.688 27.56C33.184 26.92 35.488 26.6 37.6 26.6C40.736 26.6 43.36 27.528 45.472 29.384C47.584 31.176 49.024 33.448 49.792 36.2C51.136 41 50.784 45.32 48.736 49.16C46.752 53 43.488 56.328 38.944 59.144C42.272 61.192 45.376 63.144 48.256 65C51.2 66.856 54.144 68.872 57.088 71.048C57.472 71.432 57.888 72.008 58.336 72.776C58.848 73.48 58.784 74.568 58.144 76.04C57.76 76.936 57.088 77.448 56.128 77.576C55.232 77.64 54.336 77.352 53.44 76.712C52.032 75.56 50.432 74.376 48.64 73.16C46.912 71.88 45.088 70.632 43.168 69.416C41.248 68.136 39.328 66.92 37.408 65.768C35.488 64.552 33.664 63.432 31.936 62.408C32 64.968 32.032 67.528 32.032 70.088C32.096 72.584 32.192 75.048 32.32 77.48C32.32 78.376 32.064 79.016 31.552 79.4C31.04 79.72 30.4 79.88 29.632 79.88C29.248 79.816 28.896 79.624 28.576 79.304C28.256 78.92 27.936 78.504 27.616 78.056C27.36 77.544 27.136 77.064 26.944 76.616C26.752 76.104 26.656 75.72 26.656 75.464Z" fill="#53A945"/>
<path d="M66.8281 39.625V51H65.3203V39.625H66.8281ZM71.5938 44.7422V45.9766H66.5V44.7422H71.5938ZM72.3672 39.625V40.8594H66.5V39.625H72.3672ZM80.6719 39.625H82.1719V47.3203C82.1719 48.1745 81.9818 48.8854 81.6016 49.4531C81.2214 50.0208 80.7161 50.4479 80.0859 50.7344C79.4609 51.0156 78.7812 51.1562 78.0469 51.1562C77.276 51.1562 76.5781 51.0156 75.9531 50.7344C75.3333 50.4479 74.8411 50.0208 74.4766 49.4531C74.1172 48.8854 73.9375 48.1745 73.9375 47.3203V39.625H75.4297V47.3203C75.4297 47.9141 75.5391 48.4036 75.7578 48.7891C75.9766 49.1745 76.2812 49.4609 76.6719 49.6484C77.0677 49.8359 77.526 49.9297 78.0469 49.9297C78.5729 49.9297 79.0312 49.8359 79.4219 49.6484C79.8177 49.4609 80.125 49.1745 80.3438 48.7891C80.5625 48.4036 80.6719 47.9141 80.6719 47.3203V39.625ZM91.4375 49.7734V51H85.75V49.7734H91.4375ZM86.0469 39.625V51H84.5391V39.625H86.0469ZM100.062 49.7734V51H94.375V49.7734H100.062ZM94.6719 39.625V51H93.1641V39.625H94.6719ZM107.852 48.125C107.852 47.8594 107.81 47.625 107.727 47.4219C107.648 47.2135 107.508 47.026 107.305 46.8594C107.107 46.6927 106.831 46.5339 106.477 46.3828C106.128 46.2318 105.685 46.0781 105.148 45.9219C104.586 45.7552 104.078 45.5703 103.625 45.3672C103.172 45.1589 102.784 44.9219 102.461 44.6562C102.138 44.3906 101.891 44.0859 101.719 43.7422C101.547 43.3984 101.461 43.0052 101.461 42.5625C101.461 42.1198 101.552 41.7109 101.734 41.3359C101.917 40.9609 102.177 40.6354 102.516 40.3594C102.859 40.0781 103.268 39.8594 103.742 39.7031C104.216 39.5469 104.745 39.4688 105.328 39.4688C106.182 39.4688 106.906 39.6328 107.5 39.9609C108.099 40.2839 108.555 40.7083 108.867 41.2344C109.18 41.7552 109.336 42.3125 109.336 42.9062H107.836C107.836 42.4792 107.745 42.1016 107.562 41.7734C107.38 41.4401 107.104 41.1797 106.734 40.9922C106.365 40.7995 105.896 40.7031 105.328 40.7031C104.792 40.7031 104.349 40.7839 104 40.9453C103.651 41.1068 103.391 41.3255 103.219 41.6016C103.052 41.8776 102.969 42.1927 102.969 42.5469C102.969 42.7865 103.018 43.0052 103.117 43.2031C103.221 43.3958 103.38 43.5755 103.594 43.7422C103.812 43.9089 104.089 44.0625 104.422 44.2031C104.76 44.3438 105.164 44.4792 105.633 44.6094C106.279 44.7917 106.836 44.9948 107.305 45.2188C107.773 45.4427 108.159 45.6953 108.461 45.9766C108.768 46.2526 108.995 46.5677 109.141 46.9219C109.292 47.2708 109.367 47.6667 109.367 48.1094C109.367 48.5729 109.273 48.9922 109.086 49.3672C108.898 49.7422 108.63 50.0625 108.281 50.3281C107.932 50.5938 107.513 50.7995 107.023 50.9453C106.539 51.0859 105.997 51.1562 105.398 51.1562C104.872 51.1562 104.354 51.0833 103.844 50.9375C103.339 50.7917 102.878 50.5729 102.461 50.2812C102.049 49.9896 101.719 49.6302 101.469 49.2031C101.224 48.7708 101.102 48.2708 101.102 47.7031H102.602C102.602 48.0938 102.677 48.4297 102.828 48.7109C102.979 48.987 103.185 49.2161 103.445 49.3984C103.711 49.5807 104.01 49.7161 104.344 49.8047C104.682 49.888 105.034 49.9297 105.398 49.9297C105.924 49.9297 106.37 49.8568 106.734 49.7109C107.099 49.5651 107.375 49.3568 107.562 49.0859C107.755 48.8151 107.852 48.4948 107.852 48.125ZM115.492 39.625V51H114.008V39.625H115.492ZM119.148 39.625V40.8594H110.359V39.625H119.148ZM124.422 40.6328L120.656 51H119.117L123.453 39.625H124.445L124.422 40.6328ZM127.578 51L123.805 40.6328L123.781 39.625H124.773L129.125 51H127.578ZM127.383 46.7891V48.0234H120.992V46.7891H127.383ZM137.422 47.3828H138.922C138.844 48.1016 138.638 48.7448 138.305 49.3125C137.971 49.8802 137.5 50.3307 136.891 50.6641C136.281 50.9922 135.521 51.1562 134.609 51.1562C133.943 51.1562 133.336 51.0312 132.789 50.7812C132.247 50.5312 131.781 50.1771 131.391 49.7188C131 49.2552 130.698 48.7005 130.484 48.0547C130.276 47.4036 130.172 46.6797 130.172 45.8828V44.75C130.172 43.9531 130.276 43.2318 130.484 42.5859C130.698 41.9349 131.003 41.3776 131.398 40.9141C131.799 40.4505 132.281 40.0938 132.844 39.8438C133.406 39.5938 134.039 39.4688 134.742 39.4688C135.602 39.4688 136.328 39.6302 136.922 39.9531C137.516 40.276 137.977 40.724 138.305 41.2969C138.638 41.8646 138.844 42.5234 138.922 43.2734H137.422C137.349 42.7422 137.214 42.2865 137.016 41.9062C136.818 41.5208 136.536 41.224 136.172 41.0156C135.807 40.8073 135.331 40.7031 134.742 40.7031C134.237 40.7031 133.792 40.7995 133.406 40.9922C133.026 41.1849 132.706 41.4583 132.445 41.8125C132.19 42.1667 131.997 42.5911 131.867 43.0859C131.737 43.5807 131.672 44.1302 131.672 44.7344V45.8828C131.672 46.4401 131.729 46.9635 131.844 47.4531C131.964 47.9427 132.143 48.3724 132.383 48.7422C132.622 49.112 132.927 49.4036 133.297 49.6172C133.667 49.8255 134.104 49.9297 134.609 49.9297C135.25 49.9297 135.76 49.8281 136.141 49.625C136.521 49.4219 136.807 49.1302 137 48.75C137.198 48.3698 137.339 47.9141 137.422 47.3828ZM142.484 39.625V51H140.977V39.625H142.484ZM149.352 39.625L144.625 44.9297L141.969 47.6875L141.719 46.0781L143.719 43.875L147.539 39.625H149.352ZM147.898 51L143.688 45.4531L144.586 44.2578L149.695 51H147.898ZM158.07 51H155.695L155.711 49.7734H158.07C158.883 49.7734 159.56 49.6042 160.102 49.2656C160.643 48.9219 161.049 48.4427 161.32 47.8281C161.596 47.2083 161.734 46.4844 161.734 45.6562V44.9609C161.734 44.3099 161.656 43.7318 161.5 43.2266C161.344 42.7161 161.115 42.2865 160.812 41.9375C160.51 41.5833 160.141 41.3151 159.703 41.1328C159.271 40.9505 158.773 40.8594 158.211 40.8594H155.648V39.625H158.211C158.956 39.625 159.635 39.75 160.25 40C160.865 40.2448 161.393 40.6016 161.836 41.0703C162.284 41.5339 162.628 42.0964 162.867 42.7578C163.107 43.4141 163.227 44.1536 163.227 44.9766V45.6562C163.227 46.4792 163.107 47.2214 162.867 47.8828C162.628 48.5391 162.281 49.099 161.828 49.5625C161.38 50.026 160.839 50.3828 160.203 50.6328C159.573 50.8776 158.862 51 158.07 51ZM156.5 39.625V51H154.992V39.625H156.5ZM172.719 49.7734V51H166.695V49.7734H172.719ZM167 39.625V51H165.492V39.625H167ZM171.922 44.5156V45.7422H166.695V44.5156H171.922ZM172.641 39.625V40.8594H166.695V39.625H172.641ZM178.258 49.2734L181.609 39.625H183.242L179.031 51H177.867L178.258 49.2734ZM175.125 39.625L178.445 49.2734L178.859 51H177.695L173.492 39.625H175.125ZM192 49.7734V51H185.977V49.7734H192ZM186.281 39.625V51H184.773V39.625H186.281ZM191.203 44.5156V45.7422H185.977V44.5156H191.203ZM191.922 39.625V40.8594H185.977V39.625H191.922ZM200.766 49.7734V51H195.078V49.7734H200.766ZM195.375 39.625V51H193.867V39.625H195.375ZM210.734 44.9531V45.6719C210.734 46.526 210.628 47.2917 210.414 47.9688C210.201 48.6458 209.893 49.2214 209.492 49.6953C209.091 50.1693 208.609 50.5312 208.047 50.7812C207.49 51.0312 206.865 51.1562 206.172 51.1562C205.5 51.1562 204.883 51.0312 204.32 50.7812C203.763 50.5312 203.279 50.1693 202.867 49.6953C202.461 49.2214 202.146 48.6458 201.922 47.9688C201.698 47.2917 201.586 46.526 201.586 45.6719V44.9531C201.586 44.099 201.695 43.3359 201.914 42.6641C202.138 41.987 202.453 41.4115 202.859 40.9375C203.266 40.4583 203.747 40.0938 204.305 39.8438C204.867 39.5938 205.484 39.4688 206.156 39.4688C206.849 39.4688 207.474 39.5938 208.031 39.8438C208.594 40.0938 209.076 40.4583 209.477 40.9375C209.883 41.4115 210.193 41.987 210.406 42.6641C210.625 43.3359 210.734 44.099 210.734 44.9531ZM209.242 45.6719V44.9375C209.242 44.2604 209.172 43.6615 209.031 43.1406C208.896 42.6198 208.695 42.1823 208.43 41.8281C208.164 41.474 207.839 41.2057 207.453 41.0234C207.073 40.8411 206.641 40.75 206.156 40.75C205.688 40.75 205.263 40.8411 204.883 41.0234C204.508 41.2057 204.185 41.474 203.914 41.8281C203.648 42.1823 203.443 42.6198 203.297 43.1406C203.151 43.6615 203.078 44.2604 203.078 44.9375V45.6719C203.078 46.3542 203.151 46.9583 203.297 47.4844C203.443 48.0052 203.651 48.4453 203.922 48.8047C204.198 49.1589 204.523 49.4271 204.898 49.6094C205.279 49.7917 205.703 49.8828 206.172 49.8828C206.661 49.8828 207.096 49.7917 207.477 49.6094C207.857 49.4271 208.177 49.1589 208.438 48.8047C208.703 48.4453 208.904 48.0052 209.039 47.4844C209.174 46.9583 209.242 46.3542 209.242 45.6719ZM217.188 46.5391H214.148V45.3125H217.188C217.776 45.3125 218.253 45.2188 218.617 45.0312C218.982 44.8438 219.247 44.5833 219.414 44.25C219.586 43.9167 219.672 43.5365 219.672 43.1094C219.672 42.7188 219.586 42.3516 219.414 42.0078C219.247 41.6641 218.982 41.388 218.617 41.1797C218.253 40.9661 217.776 40.8594 217.188 40.8594H214.5V51H212.992V39.625H217.188C218.047 39.625 218.773 39.7734 219.367 40.0703C219.961 40.3672 220.411 40.7786 220.719 41.3047C221.026 41.8255 221.18 42.4219 221.18 43.0938C221.18 43.8229 221.026 44.4453 220.719 44.9609C220.411 45.4766 219.961 45.8698 219.367 46.1406C218.773 46.4062 218.047 46.5391 217.188 46.5391ZM230.312 49.7734V51H224.289V49.7734H230.312ZM224.594 39.625V51H223.086V39.625H224.594ZM229.516 44.5156V45.7422H224.289V44.5156H229.516ZM230.234 39.625V40.8594H224.289V39.625H230.234ZM232.18 39.625H235.945C236.799 39.625 237.521 39.7552 238.109 40.0156C238.703 40.276 239.154 40.6615 239.461 41.1719C239.773 41.6771 239.93 42.2995 239.93 43.0391C239.93 43.5599 239.823 44.0365 239.609 44.4688C239.401 44.8958 239.099 45.2604 238.703 45.5625C238.312 45.8594 237.844 46.0807 237.297 46.2266L236.875 46.3906H233.336L233.32 45.1641H235.992C236.534 45.1641 236.984 45.0703 237.344 44.8828C237.703 44.6901 237.974 44.4323 238.156 44.1094C238.339 43.7865 238.43 43.4297 238.43 43.0391C238.43 42.6016 238.344 42.2188 238.172 41.8906C238 41.5625 237.729 41.3099 237.359 41.1328C236.995 40.9505 236.523 40.8594 235.945 40.8594H233.688V51H232.18V39.625ZM238.828 51L236.062 45.8438L237.633 45.8359L240.438 50.9062V51H238.828Z" fill="black"/>
<path d="M72.7769 70.5435V58.2266H76.4268V70.5435C76.4268 71.7316 76.1663 72.7529 75.6455 73.6074C75.1247 74.4538 74.4126 75.1048 73.5093 75.5605C72.6141 76.0163 71.605 76.2441 70.4819 76.2441C69.3182 76.2441 68.2887 76.0488 67.3936 75.6582C66.4984 75.2676 65.7944 74.6694 65.2817 73.8638C64.769 73.05 64.5127 72.0205 64.5127 70.7754H68.187C68.187 71.4264 68.2765 71.9432 68.4556 72.3257C68.6427 72.7082 68.9072 72.9808 69.249 73.1436C69.5908 73.3063 70.0018 73.3877 70.4819 73.3877C70.9458 73.3877 71.3486 73.2778 71.6904 73.0581C72.0322 72.8384 72.2967 72.5169 72.4839 72.0938C72.6792 71.6706 72.7769 71.1538 72.7769 70.5435ZM78.7705 69.5303V69.2739C78.7705 68.3055 78.9089 67.4144 79.1855 66.6006C79.4622 65.7786 79.8651 65.0666 80.394 64.4644C80.923 63.8621 81.5741 63.3942 82.3472 63.0605C83.1203 62.7188 84.0073 62.5479 85.0083 62.5479C86.0093 62.5479 86.9004 62.7188 87.6816 63.0605C88.4629 63.3942 89.118 63.8621 89.647 64.4644C90.1841 65.0666 90.591 65.7786 90.8677 66.6006C91.1444 67.4144 91.2827 68.3055 91.2827 69.2739V69.5303C91.2827 70.4906 91.1444 71.3817 90.8677 72.2036C90.591 73.0174 90.1841 73.7295 89.647 74.3398C89.118 74.9421 88.467 75.41 87.6938 75.7437C86.9207 76.0773 86.0337 76.2441 85.0327 76.2441C84.0317 76.2441 83.1406 76.0773 82.3594 75.7437C81.5863 75.41 80.9312 74.9421 80.394 74.3398C79.8651 73.7295 79.4622 73.0174 79.1855 72.2036C78.9089 71.3817 78.7705 70.4906 78.7705 69.5303ZM82.2861 69.2739V69.5303C82.2861 70.0837 82.335 70.6004 82.4326 71.0806C82.5303 71.5607 82.6849 71.9839 82.8965 72.3501C83.1162 72.7082 83.401 72.9889 83.751 73.1924C84.1009 73.3958 84.5282 73.4976 85.0327 73.4976C85.521 73.4976 85.9401 73.3958 86.29 73.1924C86.64 72.9889 86.9207 72.7082 87.1323 72.3501C87.3439 71.9839 87.4985 71.5607 87.5962 71.0806C87.702 70.6004 87.7549 70.0837 87.7549 69.5303V69.2739C87.7549 68.7368 87.702 68.2323 87.5962 67.7603C87.4985 67.2801 87.3398 66.8569 87.1201 66.4907C86.9085 66.1164 86.6278 65.8234 86.2778 65.6118C85.9279 65.4002 85.5047 65.2944 85.0083 65.2944C84.5119 65.2944 84.0887 65.4002 83.7388 65.6118C83.397 65.8234 83.1162 66.1164 82.8965 66.4907C82.6849 66.8569 82.5303 67.2801 82.4326 67.7603C82.335 68.2323 82.2861 68.7368 82.2861 69.2739ZM96.959 65.6729V76H93.4434V62.792H96.7515L96.959 65.6729ZM100.938 62.7065L100.877 65.9658C100.707 65.9414 100.499 65.9211 100.255 65.9048C100.019 65.8804 99.8032 65.8682 99.6079 65.8682C99.1115 65.8682 98.6802 65.9333 98.314 66.0635C97.9559 66.1855 97.6548 66.3687 97.4106 66.6128C97.1746 66.8569 96.9956 67.154 96.8735 67.5039C96.7596 67.8538 96.6945 68.2526 96.6782 68.7002L95.9702 68.4805C95.9702 67.626 96.0557 66.8407 96.2266 66.1245C96.3975 65.4002 96.6457 64.7695 96.9712 64.2324C97.3049 63.6953 97.7118 63.2803 98.1919 62.9873C98.672 62.6943 99.2214 62.5479 99.8398 62.5479C100.035 62.5479 100.235 62.5641 100.438 62.5967C100.641 62.6211 100.808 62.6577 100.938 62.7065ZM110.716 62.792H113.902V75.5605C113.902 76.765 113.634 77.7863 113.097 78.6245C112.568 79.4709 111.827 80.1097 110.875 80.541C109.923 80.9805 108.816 81.2002 107.555 81.2002C107.001 81.2002 106.415 81.127 105.797 80.9805C105.187 80.834 104.601 80.6061 104.039 80.2969C103.486 79.9876 103.022 79.597 102.647 79.125L104.198 77.0498C104.605 77.5218 105.077 77.888 105.614 78.1484C106.151 78.417 106.745 78.5513 107.396 78.5513C108.031 78.5513 108.568 78.4333 109.007 78.1973C109.447 77.9694 109.785 77.6317 110.021 77.1841C110.257 76.7446 110.375 76.2116 110.375 75.585V65.8438L110.716 62.792ZM101.83 69.5547V69.2983C101.83 68.2892 101.952 67.3737 102.196 66.5518C102.448 65.7217 102.802 65.0096 103.258 64.4155C103.722 63.8215 104.283 63.3617 104.942 63.0361C105.602 62.7106 106.346 62.5479 107.176 62.5479C108.055 62.5479 108.792 62.7106 109.386 63.0361C109.98 63.3617 110.468 63.8255 110.851 64.4277C111.233 65.0218 111.53 65.7257 111.742 66.5396C111.961 67.3452 112.132 68.2282 112.254 69.1885V69.75C112.132 70.6696 111.949 71.5241 111.705 72.3135C111.461 73.1029 111.139 73.7946 110.741 74.3887C110.342 74.9746 109.846 75.4303 109.251 75.7559C108.666 76.0814 107.966 76.2441 107.152 76.2441C106.338 76.2441 105.602 76.0773 104.942 75.7437C104.291 75.41 103.734 74.9421 103.27 74.3398C102.806 73.7376 102.448 73.0296 102.196 72.2158C101.952 71.402 101.83 70.515 101.83 69.5547ZM105.345 69.2983V69.5547C105.345 70.0999 105.398 70.6086 105.504 71.0806C105.61 71.5526 105.772 71.9717 105.992 72.3379C106.22 72.696 106.501 72.9767 106.834 73.1802C107.176 73.3755 107.579 73.4731 108.043 73.4731C108.686 73.4731 109.211 73.3389 109.618 73.0703C110.025 72.7936 110.33 72.4152 110.533 71.9351C110.737 71.4549 110.855 70.9015 110.887 70.2749V68.6758C110.871 68.1631 110.802 67.7033 110.68 67.2964C110.558 66.8813 110.387 66.5273 110.167 66.2344C109.947 65.9414 109.662 65.7135 109.312 65.5508C108.963 65.388 108.548 65.3066 108.067 65.3066C107.604 65.3066 107.201 65.4124 106.859 65.624C106.525 65.8275 106.244 66.1082 106.017 66.4663C105.797 66.8244 105.63 67.2476 105.516 67.7358C105.402 68.216 105.345 68.7368 105.345 69.2983ZM122.716 76.2441C121.69 76.2441 120.771 76.0814 119.957 75.7559C119.143 75.4222 118.451 74.9624 117.882 74.3765C117.32 73.7905 116.889 73.111 116.588 72.3379C116.287 71.5566 116.136 70.7266 116.136 69.8477V69.3594C116.136 68.3584 116.279 67.4429 116.563 66.6128C116.848 65.7827 117.255 65.0625 117.784 64.4521C118.321 63.8418 118.972 63.3739 119.737 63.0483C120.502 62.7147 121.365 62.5479 122.325 62.5479C123.261 62.5479 124.091 62.7025 124.815 63.0117C125.54 63.321 126.146 63.7604 126.634 64.3301C127.131 64.8997 127.505 65.5833 127.757 66.3809C128.01 67.1702 128.136 68.0492 128.136 69.0176V70.4824H117.638V68.1387H124.681V67.8701C124.681 67.3818 124.592 66.9465 124.413 66.564C124.242 66.1733 123.981 65.8641 123.631 65.6362C123.281 65.4084 122.834 65.2944 122.289 65.2944C121.825 65.2944 121.426 65.3962 121.092 65.5996C120.759 65.8031 120.486 66.0879 120.274 66.4541C120.071 66.8203 119.916 67.2516 119.811 67.748C119.713 68.2363 119.664 68.7734 119.664 69.3594V69.8477C119.664 70.3766 119.737 70.8649 119.884 71.3125C120.038 71.7601 120.254 72.1466 120.531 72.4722C120.816 72.7977 121.157 73.05 121.556 73.229C121.963 73.408 122.423 73.4976 122.936 73.4976C123.57 73.4976 124.16 73.3755 124.706 73.1313C125.259 72.8791 125.735 72.5007 126.134 71.9961L127.843 73.8516C127.566 74.2503 127.188 74.6328 126.708 74.999C126.236 75.3652 125.666 75.6663 124.999 75.9023C124.331 76.1302 123.57 76.2441 122.716 76.2441ZM146.886 70.104H150.536C150.462 71.3003 150.133 72.3623 149.547 73.29C148.969 74.2178 148.159 74.9421 147.118 75.4629C146.084 75.9837 144.839 76.2441 143.382 76.2441C142.243 76.2441 141.222 76.0488 140.318 75.6582C139.415 75.2594 138.642 74.6898 137.999 73.9492C137.364 73.2087 136.88 72.3135 136.546 71.2637C136.213 70.2139 136.046 69.0379 136.046 67.7358V66.5029C136.046 65.2008 136.217 64.0249 136.559 62.9751C136.909 61.9172 137.405 61.0179 138.048 60.2773C138.699 59.5368 139.476 58.9671 140.379 58.5684C141.283 58.1696 142.292 57.9702 143.407 57.9702C144.888 57.9702 146.137 58.2388 147.154 58.7759C148.18 59.313 148.973 60.0535 149.535 60.9976C150.104 61.9416 150.446 63.0158 150.56 64.2202H146.898C146.857 63.5041 146.715 62.8978 146.471 62.4014C146.227 61.8968 145.856 61.5184 145.36 61.2661C144.872 61.0057 144.221 60.8755 143.407 60.8755C142.796 60.8755 142.263 60.9894 141.808 61.2173C141.352 61.4451 140.969 61.791 140.66 62.2549C140.351 62.7188 140.119 63.3047 139.964 64.0127C139.818 64.7126 139.745 65.5345 139.745 66.4785V67.7358C139.745 68.6554 139.814 69.4652 139.952 70.165C140.09 70.8568 140.302 71.4427 140.587 71.9229C140.88 72.3949 141.254 72.7529 141.71 72.9971C142.174 73.2331 142.731 73.3511 143.382 73.3511C144.147 73.3511 144.778 73.229 145.274 72.9849C145.771 72.7407 146.149 72.3786 146.41 71.8984C146.678 71.4183 146.837 70.8201 146.886 70.104ZM159.85 73.0215V67.1377C159.85 66.7145 159.78 66.3524 159.642 66.0513C159.504 65.742 159.288 65.502 158.995 65.3311C158.71 65.1602 158.34 65.0747 157.884 65.0747C157.494 65.0747 157.156 65.1439 156.871 65.2822C156.586 65.4124 156.367 65.6037 156.212 65.856C156.057 66.1001 155.98 66.389 155.98 66.7227H152.464C152.464 66.1611 152.595 65.6281 152.855 65.1235C153.115 64.619 153.494 64.1755 153.99 63.793C154.487 63.4023 155.077 63.0972 155.76 62.8774C156.452 62.6577 157.225 62.5479 158.08 62.5479C159.105 62.5479 160.016 62.7188 160.814 63.0605C161.611 63.4023 162.238 63.915 162.694 64.5986C163.158 65.2822 163.39 66.1367 163.39 67.1621V72.814C163.39 73.5382 163.434 74.1323 163.524 74.5962C163.613 75.0519 163.744 75.4507 163.915 75.7925V76H160.362C160.191 75.6419 160.061 75.1943 159.972 74.6572C159.89 74.112 159.85 73.5667 159.85 73.0215ZM160.313 67.9556L160.338 69.9453H158.373C157.909 69.9453 157.506 69.9982 157.164 70.104C156.822 70.2098 156.542 70.3604 156.322 70.5557C156.102 70.7428 155.939 70.9626 155.833 71.2148C155.736 71.4671 155.687 71.7438 155.687 72.0449C155.687 72.346 155.756 72.6187 155.895 72.8628C156.033 73.0988 156.232 73.286 156.493 73.4243C156.753 73.5545 157.058 73.6196 157.408 73.6196C157.937 73.6196 158.397 73.5138 158.788 73.3022C159.178 73.0907 159.479 72.8302 159.691 72.521C159.911 72.2118 160.025 71.9188 160.033 71.6421L160.96 73.1313C160.83 73.465 160.651 73.8109 160.423 74.1689C160.204 74.527 159.923 74.8647 159.581 75.1821C159.239 75.4914 158.828 75.7477 158.348 75.9512C157.868 76.1465 157.298 76.2441 156.639 76.2441C155.801 76.2441 155.04 76.0773 154.356 75.7437C153.681 75.4019 153.144 74.9339 152.745 74.3398C152.354 73.7376 152.159 73.054 152.159 72.2891C152.159 71.5973 152.289 70.9829 152.55 70.4458C152.81 69.9087 153.193 69.457 153.697 69.0908C154.21 68.7165 154.849 68.4357 155.614 68.2485C156.379 68.0532 157.266 67.9556 158.275 67.9556H160.313ZM169.615 65.6729V76H166.1V62.792H169.408L169.615 65.6729ZM173.595 62.7065L173.534 65.9658C173.363 65.9414 173.155 65.9211 172.911 65.9048C172.675 65.8804 172.459 65.8682 172.264 65.8682C171.768 65.8682 171.336 65.9333 170.97 66.0635C170.612 66.1855 170.311 66.3687 170.067 66.6128C169.831 66.8569 169.652 67.154 169.53 67.5039C169.416 67.8538 169.351 68.2526 169.334 68.7002L168.626 68.4805C168.626 67.626 168.712 66.8407 168.883 66.1245C169.054 65.4002 169.302 64.7695 169.627 64.2324C169.961 63.6953 170.368 63.2803 170.848 62.9873C171.328 62.6943 171.878 62.5479 172.496 62.5479C172.691 62.5479 172.891 62.5641 173.094 62.5967C173.298 62.6211 173.465 62.6577 173.595 62.7065ZM182.811 73.1191V57.25H186.351V76H183.165L182.811 73.1191ZM174.461 69.5547V69.2983C174.461 68.2892 174.575 67.3737 174.803 66.5518C175.031 65.7217 175.365 65.0096 175.804 64.4155C176.244 63.8215 176.785 63.3617 177.428 63.0361C178.071 62.7106 178.803 62.5479 179.625 62.5479C180.398 62.5479 181.074 62.7106 181.651 63.0361C182.237 63.3617 182.734 63.8255 183.141 64.4277C183.556 65.0218 183.889 65.7257 184.142 66.5396C184.394 67.3452 184.577 68.2282 184.691 69.1885V69.75C184.577 70.6696 184.394 71.5241 184.142 72.3135C183.889 73.1029 183.556 73.7946 183.141 74.3887C182.734 74.9746 182.237 75.4303 181.651 75.7559C181.065 76.0814 180.382 76.2441 179.601 76.2441C178.779 76.2441 178.046 76.0773 177.403 75.7437C176.769 75.41 176.231 74.9421 175.792 74.3398C175.361 73.7376 175.031 73.0296 174.803 72.2158C174.575 71.402 174.461 70.515 174.461 69.5547ZM177.977 69.2983V69.5547C177.977 70.0999 178.018 70.6086 178.099 71.0806C178.189 71.5526 178.331 71.9717 178.526 72.3379C178.73 72.696 178.99 72.9767 179.308 73.1802C179.633 73.3755 180.028 73.4731 180.492 73.4731C181.094 73.4731 181.59 73.3389 181.981 73.0703C182.372 72.7936 182.669 72.4152 182.872 71.9351C183.084 71.4549 183.206 70.9015 183.238 70.2749V68.6758C183.214 68.1631 183.141 67.7033 183.019 67.2964C182.905 66.8813 182.734 66.5273 182.506 66.2344C182.286 65.9414 182.009 65.7135 181.676 65.5508C181.35 65.388 180.964 65.3066 180.516 65.3066C180.06 65.3066 179.67 65.4124 179.344 65.624C179.019 65.8275 178.754 66.1082 178.551 66.4663C178.355 66.8244 178.209 67.2476 178.111 67.7358C178.022 68.216 177.977 68.7368 177.977 69.2983ZM188.536 69.5303V69.2739C188.536 68.3055 188.674 67.4144 188.951 66.6006C189.228 65.7786 189.631 65.0666 190.16 64.4644C190.689 63.8621 191.34 63.3942 192.113 63.0605C192.886 62.7188 193.773 62.5479 194.774 62.5479C195.775 62.5479 196.666 62.7188 197.447 63.0605C198.229 63.3942 198.884 63.8621 199.413 64.4644C199.95 65.0666 200.357 65.7786 200.633 66.6006C200.91 67.4144 201.048 68.3055 201.048 69.2739V69.5303C201.048 70.4906 200.91 71.3817 200.633 72.2036C200.357 73.0174 199.95 73.7295 199.413 74.3398C198.884 74.9421 198.233 75.41 197.459 75.7437C196.686 76.0773 195.799 76.2441 194.798 76.2441C193.797 76.2441 192.906 76.0773 192.125 75.7437C191.352 75.41 190.697 74.9421 190.16 74.3398C189.631 73.7295 189.228 73.0174 188.951 72.2036C188.674 71.3817 188.536 70.4906 188.536 69.5303ZM192.052 69.2739V69.5303C192.052 70.0837 192.101 70.6004 192.198 71.0806C192.296 71.5607 192.451 71.9839 192.662 72.3501C192.882 72.7082 193.167 72.9889 193.517 73.1924C193.867 73.3958 194.294 73.4976 194.798 73.4976C195.287 73.4976 195.706 73.3958 196.056 73.1924C196.406 72.9889 196.686 72.7082 196.898 72.3501C197.11 71.9839 197.264 71.5607 197.362 71.0806C197.468 70.6004 197.521 70.0837 197.521 69.5303V69.2739C197.521 68.7368 197.468 68.2323 197.362 67.7603C197.264 67.2801 197.105 66.8569 196.886 66.4907C196.674 66.1164 196.393 65.8234 196.043 65.6118C195.694 65.4002 195.27 65.2944 194.774 65.2944C194.278 65.2944 193.854 65.4002 193.504 65.6118C193.163 65.8234 192.882 66.1164 192.662 66.4907C192.451 66.8569 192.296 67.2801 192.198 67.7603C192.101 68.2323 192.052 68.7368 192.052 69.2739ZM210.35 72.3501C210.35 72.0978 210.277 71.87 210.13 71.6665C209.984 71.4631 209.711 71.2759 209.312 71.105C208.922 70.9259 208.356 70.7632 207.616 70.6167C206.948 70.4702 206.326 70.2871 205.748 70.0674C205.178 69.8395 204.682 69.5669 204.259 69.2495C203.844 68.9321 203.518 68.5578 203.282 68.1265C203.046 67.687 202.928 67.1865 202.928 66.625C202.928 66.0716 203.046 65.5508 203.282 65.0625C203.526 64.5742 203.872 64.1429 204.32 63.7686C204.776 63.3861 205.329 63.089 205.98 62.8774C206.639 62.6577 207.38 62.5479 208.202 62.5479C209.349 62.5479 210.334 62.731 211.156 63.0972C211.986 63.4634 212.621 63.9679 213.06 64.6108C213.508 65.2456 213.731 65.9699 213.731 66.7837H210.216C210.216 66.4419 210.143 66.1367 209.996 65.8682C209.858 65.5915 209.638 65.3758 209.337 65.2212C209.044 65.0584 208.661 64.9771 208.189 64.9771C207.799 64.9771 207.461 65.0462 207.176 65.1846C206.891 65.3148 206.672 65.4938 206.517 65.7217C206.371 65.9414 206.297 66.1855 206.297 66.4541C206.297 66.6576 206.338 66.8407 206.419 67.0034C206.509 67.158 206.651 67.3005 206.847 67.4307C207.042 67.5609 207.294 67.6829 207.604 67.7969C207.921 67.9027 208.312 68.0003 208.775 68.0898C209.728 68.2852 210.578 68.5415 211.327 68.8589C212.075 69.1681 212.669 69.5913 213.109 70.1284C213.548 70.6574 213.768 71.3532 213.768 72.2158C213.768 72.8018 213.638 73.3389 213.377 73.8271C213.117 74.3154 212.743 74.7427 212.254 75.1089C211.766 75.467 211.18 75.7477 210.497 75.9512C209.821 76.1465 209.06 76.2441 208.214 76.2441C206.985 76.2441 205.943 76.0244 205.089 75.585C204.243 75.1455 203.6 74.5881 203.16 73.9126C202.729 73.229 202.513 72.5291 202.513 71.813H205.846C205.862 72.2931 205.984 72.6797 206.212 72.9727C206.448 73.2656 206.745 73.4772 207.103 73.6074C207.469 73.7376 207.864 73.8027 208.287 73.8027C208.743 73.8027 209.121 73.7417 209.422 73.6196C209.723 73.4894 209.951 73.3185 210.106 73.1069C210.269 72.8872 210.35 72.6349 210.35 72.3501ZM215.489 69.5303V69.2739C215.489 68.3055 215.628 67.4144 215.904 66.6006C216.181 65.7786 216.584 65.0666 217.113 64.4644C217.642 63.8621 218.293 63.3942 219.066 63.0605C219.839 62.7188 220.726 62.5479 221.727 62.5479C222.728 62.5479 223.619 62.7188 224.4 63.0605C225.182 63.3942 225.837 63.8621 226.366 64.4644C226.903 65.0666 227.31 65.7786 227.586 66.6006C227.863 67.4144 228.001 68.3055 228.001 69.2739V69.5303C228.001 70.4906 227.863 71.3817 227.586 72.2036C227.31 73.0174 226.903 73.7295 226.366 74.3398C225.837 74.9421 225.186 75.41 224.413 75.7437C223.639 76.0773 222.752 76.2441 221.751 76.2441C220.75 76.2441 219.859 76.0773 219.078 75.7437C218.305 75.41 217.65 74.9421 217.113 74.3398C216.584 73.7295 216.181 73.0174 215.904 72.2036C215.628 71.3817 215.489 70.4906 215.489 69.5303ZM219.005 69.2739V69.5303C219.005 70.0837 219.054 70.6004 219.151 71.0806C219.249 71.5607 219.404 71.9839 219.615 72.3501C219.835 72.7082 220.12 72.9889 220.47 73.1924C220.82 73.3958 221.247 73.4976 221.751 73.4976C222.24 73.4976 222.659 73.3958 223.009 73.1924C223.359 72.9889 223.639 72.7082 223.851 72.3501C224.063 71.9839 224.217 71.5607 224.315 71.0806C224.421 70.6004 224.474 70.0837 224.474 69.5303V69.2739C224.474 68.7368 224.421 68.2323 224.315 67.7603C224.217 67.2801 224.059 66.8569 223.839 66.4907C223.627 66.1164 223.347 65.8234 222.997 65.6118C222.647 65.4002 222.223 65.2944 221.727 65.2944C221.231 65.2944 220.807 65.4002 220.458 65.6118C220.116 65.8234 219.835 66.1164 219.615 66.4907C219.404 66.8569 219.249 67.2801 219.151 67.7603C219.054 68.2323 219.005 68.7368 219.005 69.2739ZM236.607 58.2266H243.236C244.595 58.2266 245.763 58.43 246.739 58.8369C247.724 59.2438 248.481 59.846 249.01 60.6436C249.539 61.4411 249.803 62.4217 249.803 63.5854C249.803 64.5376 249.64 65.3555 249.315 66.0391C248.998 66.7145 248.546 67.2801 247.96 67.7358C247.382 68.1834 246.703 68.5415 245.921 68.8101L244.762 69.4204H239L238.976 66.564H243.26C243.903 66.564 244.436 66.45 244.859 66.2222C245.283 65.9943 245.6 65.6769 245.812 65.27C246.031 64.8631 246.141 64.3911 246.141 63.854C246.141 63.2843 246.035 62.792 245.824 62.377C245.612 61.9619 245.291 61.6445 244.859 61.4248C244.428 61.2051 243.887 61.0952 243.236 61.0952H240.27V76H236.607V58.2266ZM246.544 76L242.491 68.0776L246.361 68.0532L250.462 75.8291V76H246.544ZM259.532 73.0215V67.1377C259.532 66.7145 259.463 66.3524 259.325 66.0513C259.186 65.742 258.971 65.502 258.678 65.3311C258.393 65.1602 258.023 65.0747 257.567 65.0747C257.176 65.0747 256.839 65.1439 256.554 65.2822C256.269 65.4124 256.049 65.6037 255.895 65.856C255.74 66.1001 255.663 66.389 255.663 66.7227H252.147C252.147 66.1611 252.277 65.6281 252.538 65.1235C252.798 64.619 253.176 64.1755 253.673 63.793C254.169 63.4023 254.759 63.0972 255.443 62.8774C256.135 62.6577 256.908 62.5479 257.762 62.5479C258.788 62.5479 259.699 62.7188 260.497 63.0605C261.294 63.4023 261.921 63.915 262.376 64.5986C262.84 65.2822 263.072 66.1367 263.072 67.1621V72.814C263.072 73.5382 263.117 74.1323 263.207 74.5962C263.296 75.0519 263.426 75.4507 263.597 75.7925V76H260.045C259.874 75.6419 259.744 75.1943 259.654 74.6572C259.573 74.112 259.532 73.5667 259.532 73.0215ZM259.996 67.9556L260.021 69.9453H258.055C257.591 69.9453 257.188 69.9982 256.847 70.104C256.505 70.2098 256.224 70.3604 256.004 70.5557C255.785 70.7428 255.622 70.9626 255.516 71.2148C255.418 71.4671 255.37 71.7438 255.37 72.0449C255.37 72.346 255.439 72.6187 255.577 72.8628C255.715 73.0988 255.915 73.286 256.175 73.4243C256.436 73.5545 256.741 73.6196 257.091 73.6196C257.62 73.6196 258.08 73.5138 258.47 73.3022C258.861 73.0907 259.162 72.8302 259.374 72.521C259.593 72.2118 259.707 71.9188 259.715 71.6421L260.643 73.1313C260.513 73.465 260.334 73.8109 260.106 74.1689C259.886 74.527 259.605 74.8647 259.264 75.1821C258.922 75.4914 258.511 75.7477 258.031 75.9512C257.551 76.1465 256.981 76.2441 256.322 76.2441C255.484 76.2441 254.723 76.0773 254.039 75.7437C253.364 75.4019 252.826 74.9339 252.428 74.3398C252.037 73.7376 251.842 73.054 251.842 72.2891C251.842 71.5973 251.972 70.9829 252.232 70.4458C252.493 69.9087 252.875 69.457 253.38 69.0908C253.893 68.7165 254.531 68.4357 255.296 68.2485C256.061 68.0532 256.948 67.9556 257.958 67.9556H259.996ZM265.782 57.25H269.298V72.9727L268.944 76H265.782V57.25ZM277.66 69.2617V69.5181C277.66 70.5028 277.554 71.4061 277.342 72.228C277.139 73.05 276.821 73.762 276.39 74.3643C275.959 74.9583 275.422 75.4222 274.779 75.7559C274.144 76.0814 273.395 76.2441 272.533 76.2441C271.727 76.2441 271.027 76.0814 270.433 75.7559C269.847 75.4303 269.355 74.9705 268.956 74.3765C268.557 73.7824 268.236 73.0866 267.992 72.2891C267.748 71.4915 267.564 70.6208 267.442 69.6768V69.1152C267.564 68.1712 267.748 67.3005 267.992 66.5029C268.236 65.7054 268.557 65.0096 268.956 64.4155C269.355 63.8215 269.847 63.3617 270.433 63.0361C271.019 62.7106 271.711 62.5479 272.508 62.5479C273.379 62.5479 274.136 62.7147 274.779 63.0483C275.43 63.3739 275.967 63.8377 276.39 64.4399C276.821 65.034 277.139 65.742 277.342 66.564C277.554 67.3778 277.66 68.277 277.66 69.2617ZM274.144 69.5181V69.2617C274.144 68.7246 274.103 68.2201 274.022 67.748C273.949 67.2679 273.819 66.8488 273.631 66.4907C273.444 66.1245 273.188 65.8356 272.862 65.624C272.545 65.4124 272.134 65.3066 271.629 65.3066C271.149 65.3066 270.742 65.388 270.409 65.5508C270.075 65.7135 269.798 65.9414 269.579 66.2344C269.367 66.5273 269.208 66.8773 269.103 67.2842C268.997 67.6829 268.932 68.1224 268.907 68.6025V70.2017C268.932 70.8446 269.037 71.4142 269.225 71.9106C269.42 72.3989 269.713 72.7855 270.104 73.0703C270.502 73.347 271.019 73.4854 271.654 73.4854C272.15 73.4854 272.561 73.3877 272.887 73.1924C273.212 72.9971 273.465 72.7204 273.644 72.3623C273.831 72.0042 273.961 71.5851 274.034 71.105C274.107 70.6167 274.144 70.0877 274.144 69.5181ZM285.924 76.2441C284.898 76.2441 283.979 76.0814 283.165 75.7559C282.351 75.4222 281.66 74.9624 281.09 74.3765C280.528 73.7905 280.097 73.111 279.796 72.3379C279.495 71.5566 279.344 70.7266 279.344 69.8477V69.3594C279.344 68.3584 279.487 67.4429 279.771 66.6128C280.056 65.7827 280.463 65.0625 280.992 64.4521C281.529 63.8418 282.18 63.3739 282.945 63.0483C283.71 62.7147 284.573 62.5479 285.533 62.5479C286.469 62.5479 287.299 62.7025 288.023 63.0117C288.748 63.321 289.354 63.7604 289.842 64.3301C290.339 64.8997 290.713 65.5833 290.965 66.3809C291.218 67.1702 291.344 68.0492 291.344 69.0176V70.4824H280.846V68.1387H287.889V67.8701C287.889 67.3818 287.8 66.9465 287.621 66.564C287.45 66.1733 287.189 65.8641 286.839 65.6362C286.489 65.4084 286.042 65.2944 285.497 65.2944C285.033 65.2944 284.634 65.3962 284.3 65.5996C283.967 65.8031 283.694 66.0879 283.482 66.4541C283.279 66.8203 283.124 67.2516 283.019 67.748C282.921 68.2363 282.872 68.7734 282.872 69.3594V69.8477C282.872 70.3766 282.945 70.8649 283.092 71.3125C283.246 71.7601 283.462 72.1466 283.739 72.4722C284.024 72.7977 284.365 73.05 284.764 73.229C285.171 73.408 285.631 73.4976 286.144 73.4976C286.778 73.4976 287.368 73.3755 287.914 73.1313C288.467 72.8791 288.943 72.5007 289.342 71.9961L291.051 73.8516C290.774 74.2503 290.396 74.6328 289.916 74.999C289.444 75.3652 288.874 75.6663 288.207 75.9023C287.539 76.1302 286.778 76.2441 285.924 76.2441ZM297.057 57.25V76H293.529V57.25H297.057ZM303.673 57.25V76H300.145V57.25H303.673ZM306.017 69.5303V69.2739C306.017 68.3055 306.155 67.4144 306.432 66.6006C306.708 65.7786 307.111 65.0666 307.64 64.4644C308.169 63.8621 308.82 63.3942 309.593 63.0605C310.366 62.7188 311.253 62.5479 312.254 62.5479C313.255 62.5479 314.146 62.7188 314.928 63.0605C315.709 63.3942 316.364 63.8621 316.893 64.4644C317.43 65.0666 317.837 65.7786 318.114 66.6006C318.39 67.4144 318.529 68.3055 318.529 69.2739V69.5303C318.529 70.4906 318.39 71.3817 318.114 72.2036C317.837 73.0174 317.43 73.7295 316.893 74.3398C316.364 74.9421 315.713 75.41 314.94 75.7437C314.167 76.0773 313.28 76.2441 312.279 76.2441C311.278 76.2441 310.387 76.0773 309.605 75.7437C308.832 75.41 308.177 74.9421 307.64 74.3398C307.111 73.7295 306.708 73.0174 306.432 72.2036C306.155 71.3817 306.017 70.4906 306.017 69.5303ZM309.532 69.2739V69.5303C309.532 70.0837 309.581 70.6004 309.679 71.0806C309.776 71.5607 309.931 71.9839 310.143 72.3501C310.362 72.7082 310.647 72.9889 310.997 73.1924C311.347 73.3958 311.774 73.4976 312.279 73.4976C312.767 73.4976 313.186 73.3958 313.536 73.1924C313.886 72.9889 314.167 72.7082 314.378 72.3501C314.59 71.9839 314.745 71.5607 314.842 71.0806C314.948 70.6004 315.001 70.0837 315.001 69.5303V69.2739C315.001 68.7368 314.948 68.2323 314.842 67.7603C314.745 67.2801 314.586 66.8569 314.366 66.4907C314.155 66.1164 313.874 65.8234 313.524 65.6118C313.174 65.4002 312.751 65.2944 312.254 65.2944C311.758 65.2944 311.335 65.4002 310.985 65.6118C310.643 65.8234 310.362 66.1164 310.143 66.4907C309.931 66.8569 309.776 67.2801 309.679 67.7603C309.581 68.2323 309.532 68.7368 309.532 69.2739Z" fill="#53A945"/>
</svg>
